<?xml version="1.0" encoding="utf-8"?>
<!-- Generator: Adobe Illustrator 22.1.0, SVG Export Plug-In . SVG Version: 6.00 Build 0)  -->
<svg version="1.1" xmlns="http://www.w3.org/2000/svg" xmlns:xlink="http://www.w3.org/1999/xlink" x="0px" y="0px"
	 viewBox="0 0 343.5 303.1" style="enable-background:new 0 0 343.5 303.1;" xml:space="preserve">
<style type="text/css">
	.st0{display:none;}
	.st1{display:inline;}
	.st2{fill:#66846D;}
	.st3{fill:#FFFFFF;}
	.st4{display:inline;fill:#B8DAF2;}
	.st5{display:inline;fill:#DDD2FA;}
	.st6{display:inline;fill:#CECEF7;}
	.st7{display:inline;fill:#C6D4F5;}
	.st8{display:inline;fill:#B7D2F2;}
	.st9{fill:none;stroke:#66846D;stroke-width:0.35;stroke-linecap:round;stroke-miterlimit:10;}
	.st10{fill:none;stroke:#66846D;stroke-width:1.5;stroke-linecap:round;stroke-miterlimit:10;}
	.st11{fill:none;stroke:#FFFFFF;stroke-width:1.5;stroke-linecap:round;stroke-miterlimit:10;}
	.st12{fill:#DA7547;}
	.st13{fill:none;stroke:#DA7547;stroke-width:9;stroke-miterlimit:10;}
	.st14{fill:none;stroke:#DA7547;stroke-width:5;stroke-miterlimit:10;}
	.st15{fill:none;stroke:#DA7547;stroke-width:10;stroke-linecap:round;stroke-miterlimit:10;}
	.st16{fill:none;stroke:#DA7547;stroke-width:10;stroke-miterlimit:10;}
</style>
<g id="Layer_2" class="st0">
</g>
<g id="Layer_1">
	<g>
		<path class="st10" d="M277.1,287.8c-3.6,5.8-15.1-0.5-26.1-6c-5.8-2.9-13.9-6.9-18.2-16.1c-1-2.2-4.8-10.7-1.2-20.6
			c3.4-9.4,10.4-13.4,12.3-14.4c1.7-1.2,9.1-5.9,18.9-4.4c10.4,1.6,16,8.9,17.5,10.9c6.1,8.2,5.8,17.1,5.5,23.7
			C285.3,273.1,280.4,282.5,277.1,287.8z"/>
		<line class="st10" x1="275.2" y1="289.5" x2="240.5" y2="216.5"/>
		<line class="st10" x1="279.8" y1="263.7" x2="262.3" y2="262.4"/>
		<line class="st10" x1="253" y1="277.1" x2="262.3" y2="262.4"/>
		<line class="st10" x1="261.8" y1="284" x2="268" y2="274.6"/>
		<line class="st10" x1="242.9" y1="271.7" x2="256.5" y2="250.2"/>
		<line class="st10" x1="237.8" y1="258.2" x2="250.6" y2="237.8"/>
		<line class="st10" x1="279.4" y1="275.2" x2="268.1" y2="274.5"/>
		<line class="st10" x1="281.7" y1="252.1" x2="256.5" y2="250.2"/>
		<line class="st10" x1="274.7" y1="239.6" x2="250.7" y2="237.8"/>
	</g>
	<path class="st15" d="M279.3,91.2c-37.9-3.5-79.6-4.8-124.5-2.5c-33.8,1.7-65.6,5.3-95.2,10.1"/>
	<path class="st15" d="M57.7,150.6c33.5,4.8,70.9,7.9,111.7,7.5c42.3-0.4,80.9-4.3,115.4-10.1"/>
	<path class="st15" d="M276.5,217.5c-41.5-3.8-87-5.2-135.8-2.5c-27.4,1.5-53.6,4.1-78.4,7.5"/>
	<g>
		<path class="st10" d="M83.1,14.8c4.3-5.4,14.9,2.2,25.3,8.9c5.5,3.5,13,8.4,16.2,18.1c0.8,2.3,3.5,11.2-1.1,20.6
			c-4.4,8.9-11.9,12.2-13.8,12.9c-1.8,1-9.7,4.8-19.3,2.2c-10.1-2.7-14.9-10.7-16.2-12.8C69,56,70.4,47.1,71.4,40.6
			C73.2,28.4,79.2,19.7,83.1,14.8z"/>
		<line class="st10" x1="85.1" y1="13.3" x2="111.3" y2="89.8"/>
		<line class="st10" x1="77.7" y1="38.5" x2="94.8" y2="41.8"/>
		<line class="st10" x1="105.8" y1="28.2" x2="94.8" y2="41.8"/>
		<line class="st10" x1="97.8" y1="20.3" x2="90.6" y2="29"/>
		<line class="st10" x1="115.2" y1="34.7" x2="99.3" y2="54.5"/>
		<line class="st10" x1="118.7" y1="48.7" x2="103.6" y2="67.5"/>
		<line class="st10" x1="79.3" y1="27" x2="90.4" y2="29"/>
		<line class="st10" x1="74.4" y1="49.7" x2="99.3" y2="54.5"/>
		<line class="st10" x1="80" y1="62.9" x2="103.6" y2="67.5"/>
	</g>
</g>
</svg>
