<?xml version="1.0" encoding="utf-8"?>
<!-- Generator: Adobe Illustrator 22.1.0, SVG Export Plug-In . SVG Version: 6.00 Build 0)  -->
<svg version="1.1" xmlns="http://www.w3.org/2000/svg" xmlns:xlink="http://www.w3.org/1999/xlink" x="0px" y="0px"
	 viewBox="0 0 90 90" style="enable-background:new 0 0 90 90;" xml:space="preserve">
<style type="text/css">
	.st0{display:none;}
	.st1{display:inline;}
	.st2{fill:#66846D;}
	.st3{fill:#FFFFFF;}
	.st4{display:inline;fill:#B8DAF2;}
	.st5{display:inline;fill:#DDD2FA;}
	.st6{display:inline;fill:#CECEF7;}
	.st7{display:inline;fill:#C6D4F5;}
	.st8{display:inline;fill:#B7D2F2;}
	.st9{fill:none;stroke:#66846D;stroke-width:0.35;stroke-linecap:round;stroke-miterlimit:10;}
	.st10{fill:none;stroke:#66846D;stroke-linecap:round;stroke-miterlimit:10;}
	.st11{fill:none;stroke:#66846D;stroke-width:1.5;stroke-linecap:round;stroke-miterlimit:10;}
	.st12{fill:none;stroke:#FFFFFF;stroke-width:1.5;stroke-linecap:round;stroke-miterlimit:10;}
</style>
<g id="Layer_2" class="st0">
</g>
<g id="Layer_1">
	<g>
		<path class="st2" d="M66.4,2.8C52.9-2,40.8,2.7,33,5.6c-8.3,3.1-20.1,7.6-26.9,19.9C0.5,35.7,1.3,45.7,1.8,50.4
			C2.2,54.8,4.1,75,20.9,84.6c11.9,6.8,24.2,4.3,27.8,3.6C63.8,85.1,72.3,75,75.7,71c2.3-2.7,12.6-15.5,12.9-33.9
			c0.1-5.5,0.2-13.3-4.9-21.1C78,7.1,69.4,3.9,66.4,2.8z"/>
		<g>
			<path class="st12" d="M69,16.6c6.3,1.5,4,13.6,2.4,25c-0.8,6-2,14.4-9,20.9c-1.7,1.6-8.1,7.4-18,7.2c-9.3-0.2-15-5.3-16.4-6.7
				c-1.6-1.2-7.9-6.3-9.5-15.5c-1.7-9.7,3.2-16.9,4.5-18.8c5.5-7.8,13.6-10.2,19.4-11.9C53.6,13.6,63.3,15.2,69,16.6z"/>
			<line class="st12" x1="71.1" y1="17.7" x2="16.4" y2="70.2"/>
			<line class="st12" x1="46.8" y1="21.3" x2="50.7" y2="37.2"/>
			<line class="st12" x1="66.6" y1="41.1" x2="50.7" y2="37.2"/>
			<line class="st12" x1="70.2" y1="31.2" x2="60" y2="28.5"/>
			<line class="st12" x1="64.8" y1="51.7" x2="41.7" y2="46"/>
			<line class="st12" x1="54.3" y1="60.3" x2="32.4" y2="54.8"/>
			<line class="st12" x1="57.2" y1="18.2" x2="59.9" y2="28.4"/>
			<line class="st12" x1="35.9" y1="22.9" x2="41.7" y2="46"/>
			<line class="st12" x1="26.9" y1="32.9" x2="32.3" y2="54.8"/>
		</g>
	</g>
</g>
</svg>
