<?xml version="1.0" encoding="utf-8"?>
<!-- Generator: Adobe Illustrator 22.1.0, SVG Export Plug-In . SVG Version: 6.00 Build 0)  -->
<svg version="1.1" xmlns="http://www.w3.org/2000/svg" xmlns:xlink="http://www.w3.org/1999/xlink" x="0px" y="0px"
	 viewBox="0 0 343.5 303.1" style="enable-background:new 0 0 343.5 303.1;" xml:space="preserve">
<style type="text/css">
	.st0{display:none;}
	.st1{display:inline;}
	.st2{fill:#66846D;}
	.st3{fill:#FFFFFF;}
	.st4{display:inline;fill:#B8DAF2;}
	.st5{display:inline;fill:#DDD2FA;}
	.st6{display:inline;fill:#CECEF7;}
	.st7{display:inline;fill:#C6D4F5;}
	.st8{display:inline;fill:#B7D2F2;}
	.st9{fill:none;stroke:#66846D;stroke-width:0.35;stroke-linecap:round;stroke-miterlimit:10;}
	.st10{fill:none;stroke:#66846D;stroke-width:1.5;stroke-linecap:round;stroke-miterlimit:10;}
	.st11{fill:none;stroke:#FFFFFF;stroke-width:1.5;stroke-linecap:round;stroke-miterlimit:10;}
	.st12{fill:#DA7547;}
	.st13{fill:none;stroke:#DA7547;stroke-width:9;stroke-miterlimit:10;}
	.st14{fill:none;stroke:#DA7547;stroke-width:5;stroke-miterlimit:10;}
	.st15{fill:none;stroke:#DA7547;stroke-width:10;stroke-linecap:round;stroke-miterlimit:10;}
	.st16{fill:none;stroke:#DA7547;stroke-width:10;stroke-miterlimit:10;}
</style>
<g id="Layer_2" class="st0">
</g>
<g id="Layer_1">
	<path class="st16" d="M281,56.4c-36.2-29.3-88-21.2-129.5-14.1C78.7,54.6,42.3,60.8,22,94.1C0.8,128.6,4.8,177.7,29,211.8
		c30.4,42.9,81.5,46.5,89.5,47.1c27,1.9,50.7-6,89.5-18.8c37.1-12.3,44.7-20.1,65.9-18.8c33.8,2.1,59,24.5,61.2,21.2
		c2-2.9-21-15.1-28.3-40c-2.7-9.2-1.4-14,0-33c3.5-46.2,5.1-70.6-7.1-91.8C293.5,66.5,285.6,60.1,281,56.4z"/>
</g>
</svg>
