<svg xmlns="http://www.w3.org/2000/svg" viewBox="0 0 412 124.3"><style type="text/css">  
	.st0{display:none;}
	.st1{display:inline;}
	.st2{fill:#66846D;}
	.st3{fill:#FFFFFF;}
	.st4{display:inline;fill:#B8DAF2;}
	.st5{display:inline;fill:#DDD2FA;}
	.st6{display:inline;fill:#CECEF7;}
	.st7{display:inline;fill:#C6D4F5;}
	.st8{display:inline;fill:#B7D2F2;}
	.st9{fill:none;stroke:#66846D;stroke-width:0.35;stroke-linecap:round;stroke-miterlimit:10;}
	.st10{fill:none;stroke:#66846D;stroke-linecap:round;stroke-miterlimit:10;}
	.st11{fill:#C86B42;}
	.st12{fill:#66846D;stroke:#FFFFFF;stroke-miterlimit:10;}
	.st13{fill:#66846D;stroke:#FFFFFF;stroke-linecap:round;stroke-miterlimit:10;}
	.st14{fill:none;stroke:#66846D;stroke-width:1.5;stroke-linecap:round;stroke-miterlimit:10;}
	.st15{fill:none;stroke:#FFFFFF;stroke-width:1.5;stroke-linecap:round;stroke-miterlimit:10;}
	.st16{fill:#A45342;}
	.st17{fill:#BE6731;}
	.st18{fill:#C86949;}
</style><line class="st10" x1="379" y1="32" x2="373.9" y2="37.2"/><path class="st11" d="M11.1 13.9c8.6 0 14.5 4 17.7 11.9 0.6 1.8 0.9 3.9 1.1 6.3 0 11.5-2 24.1-6.1 37.8 -1.9 3.3-4.6 5.7-8 7.4 -2.2 0.1-3.3 0.4-3.3 0.8v0.3c0 2.4 0.1 4.5 0.3 6.1 -0.2 1.6-0.3 2.5-0.3 2.8 0.6 10.4 0.8 16.4 0.8 17.9 0.6 0.1 0.8 0.8 0.8 2.2v0.8c-0.6 1.4-1.1 2.3-1.7 2.5H12c-0.3 0-0.6-0.4-1.1-1.1v-1.9c0-0.2 0.1-0.3 0.3-0.3 -0.3-1.8-0.6-4.2-0.8-7.2 0-0.2 0.1-0.3 0.3-0.3L9.8 88.4c0.2-1.8 0.3-3.2 0.3-4.1 -0.2-3.4-0.3-5.5-0.3-6.3 -0.7-0.4-1.1-0.8-1.1-1.4 0.2-0.7 0.6-1.1 1.1-1.1 -0.4-4.9-0.6-7.8-0.6-8.8l1.4-50.2c-0.4 0-0.6-0.2-0.6-0.6V15C10 14.8 10.4 14.4 11.1 13.9zM13.4 16.7L12 66.6c0.2 3.9 0.3 6.5 0.3 8l0.6 0.3c2.1 0 4.2-1.1 6.3-3.3 3.2-2 5.7-13.3 7.7-33.9 0.2-3.4 0.3-5.6 0.3-6.6 0-4.8-2.8-9.1-8.3-13C17.3 17.5 15.4 17.1 13.4 16.7z"/><path class="st11" d="M47.9 11.7h0.3c0.3 0 0.6 0.4 1.1 1.1 0 0.9-0.2 1.4-0.6 1.4l0.3 0.6c1.3 20 1.9 37 1.9 50.8 0.6 4.5 0.8 10.6 0.8 18.5v24h14.9c0.3 0 0.6 0.3 0.8 0.8v0.8c0 0.7-1.6 1.1-4.7 1.1H50.1c-0.3 0-0.6-0.4-1.1-1.1V108c0-1.3 0.1-1.9 0.3-1.9l-0.3-3.3V82.6c-0.7-24.2-1.5-44.4-2.2-60.4L46 13.1C46.2 12.2 46.9 11.7 47.9 11.7z"/><path class="st11" d="M94.3 16.6h0.3c2.6 1.2 4.9 4.4 6.7 9.7 5.1 15.8 8.9 36 11.3 60.6 1.6 8 2.4 15 2.4 21 -0.2 0.6-0.9 0.9-1.9 0.9 -0.7-1.4-1.8-8.7-3.3-21.9 -0.4-1.4-1.3-7.5-2.8-18.3l-2.1-0.3C95 69.3 90 70.3 90 71.4v10.7l-1.9 25.6c0.4 0.6 0.6 1.2 0.6 1.8 0 0.3-0.4 0.7-1.2 1.2 -1.6 0-2.4-1-2.4-3 1.4-19.4 2.1-31.1 2.1-35C87.1 70.2 87 67.6 87 65c0.1-13.2 1.2-27.2 3.3-42C91.2 18.8 92.5 16.6 94.3 16.6zM94.3 20.3c-2.7 10.3-4 23.6-4 39.9 -0.2 0-0.3 2.2-0.3 6.7v0.9c5.8-1.6 11.4-2.4 16.8-2.4V65c0-5.6-3.1-18.9-9.2-39.9C96.3 22.3 95.2 20.6 94.3 20.3z"/><path class="st11" d="M137.3 15.5c1 0 5.2 12.5 12.5 37.6 1.1 5.9 5.5 20.8 13.4 44.7h0.8v-2.3c-1.1-22.3-1.6-34.9-1.6-37.7 0-0.8 0.1-3.6 0.3-8.4 0-0.6-0.1-1.6-0.1-3.2 0.4-3.6 0.6-6.5 0.6-8.7V17.9c0.1-1.1 0.6-1.6 1.5-1.6l1.6 0.8c-0.5 10.4-0.8 18.3-0.8 23.5v7.8c0 16 0.5 36.6 1.5 61.9l-1.5 0.8c-1.1 0-7.6-20.4-19.6-61.1l-7.2-24.9 -0.6-0.9 -0.1 1.5c0.3 3.9 0.5 6.9 0.5 9.1l0.1 2.3c-0.4 10.2-0.6 17.4-0.6 21.4 0 20.6 0.8 37.6 2.3 50.9h-1.6c-1 0-1.5-0.5-1.5-1.5 -1.1-16-1.6-30.4-1.6-43.1V17.1C135.9 16 136.4 15.5 137.3 15.5z"/><path class="st11" d="M209.2 21l0.8 1v0.7c0 0.8-2.6 1.2-7.7 1.2h-7.7c-0.3 0-0.6 0.3-0.8 1l0.6 12.6c-0.2 1.1-0.3 1.8-0.3 1.9 1.7 27.8 2.5 47.7 2.5 59.8 0.2 0.3 0.3 0.6 0.3 0.8 -0.2 0.3-0.3 0.5-0.3 0.7l0.3 1.7c-0.3 0.6-0.6 1-0.8 1h-1.1c-0.2 0-0.6-0.3-1.1-1 0-0.3 0.1-1.2 0.3-2.6 0-4-0.8-23.8-2.5-59.6 0-5.8-0.2-11.1-0.6-15.9l-0.6-0.3h-0.8l-8.8 0.8c-0.6-0.6-0.8-1.3-0.8-2.1 0-0.3 0.4-0.6 1.1-1 1.3 0.3 2 0.5 2.2 0.5 3.5-0.3 6-0.5 7.4-0.5H202C204.4 21.4 206.8 21.3 209.2 21z"/><path class="st11" d="M245.5 8.8h0.6c0.7 0.4 1.1 0.8 1.1 1.4 0 8.6-0.2 15.4-0.6 20.1l0.6 28.7c0.4 0.6 0.6 1.1 0.6 1.4 -0.2 0.6-0.4 0.8-0.6 0.8 0.4 8.6 0.6 23.6 0.8 45 -0.2 1-0.3 2.8-0.3 5.5l-0.8 0.6H246l-1.1-0.8c0-2 0.1-3.5 0.3-4.7 -0.2-25.1-0.5-40.2-0.8-45.2 -8.6 0.2-13.5 0.5-14.6 0.8 0.4 3.4 0.6 6.8 0.6 10.2 0 7.3-0.1 13.7-0.3 19.3 0.2 3.1 0.3 9.2 0.3 18.2 -0.6 0.4-1.1 0.6-1.7 0.6 -0.3 0-0.6-0.4-1.1-1.1v-2.5c0-7.5-0.1-12.6-0.3-15.2 0.2-4.5 0.3-10 0.3-16.5v-4.1c-0.6-9-0.8-15.3-0.8-18.8 0.6-20.5 0.8-33.6 0.8-39.2 -0.2-0.7-0.3-1.4-0.3-1.9l1.1-0.8h0.6c0.9 0.6 1.4 1.3 1.4 2.2 0 3.4-0.3 17.2-0.8 41.4v5l0.3 0.6c1.2-0.4 6.1-0.6 14.6-0.8 -0.2-6.7-0.3-11.4-0.3-14.3V31.6c0-0.4-0.1-0.8-0.3-1.1l0.3-0.6c0.2-8.8 0.3-15.6 0.3-20.4L245.5 8.8z"/><path class="st11" d="M279 16.1c5.2 0 9.3 12.4 12.4 37.2 0.2 2.3 0.3 5.4 0.3 9.1v1.1c0 0.6-0.1 1.5-0.3 2.5 0.2 0.2 0.3 0.9 0.3 1.9v0.3c0 1.1-0.1 1.7-0.3 1.9 0.2 1 0.3 1.5 0.3 1.7 0 19.4-2.7 31.4-8 35.9 -1.9 0.7-3.2 1.1-3.9 1.1h-1.9c-6.6-1.6-10.8-10.2-12.4-25.7l-0.8-11.3c0-25.9 3.2-43.8 9.7-53.8C276.1 16.8 277.6 16.1 279 16.1zM267.5 71c0 10.4 1.4 19.5 4.1 27.3 2.6 5.1 4.9 7.7 6.9 7.7h0.3c3.7 0 6.1-2.6 7.2-7.7 2-4.8 3-15 3-30.6v-5.5c0-10.8-1.9-23.2-5.8-37.2 -1.4-3.1-2.8-5.1-4.1-6.1 -2.2 0.8-3.4 1.8-3.9 3C270 32.8 267.5 49.2 267.5 71z"/><path class="st11" d="M321.9 16.1c5.2 0 9.3 12.4 12.4 37.2 0.2 2.3 0.3 5.4 0.3 9.1v1.1c0 0.6-0.1 1.5-0.3 2.5 0.2 0.2 0.3 0.9 0.3 1.9v0.3c0 1.1-0.1 1.7-0.3 1.9 0.2 1 0.3 1.5 0.3 1.7 0 19.4-2.7 31.4-8 35.9 -1.9 0.7-3.2 1.1-3.9 1.1h-1.9c-6.6-1.6-10.8-10.2-12.4-25.7l-0.8-11.3c0-25.9 3.2-43.8 9.7-53.8C319 16.8 320.5 16.1 321.9 16.1zM310.4 71c0 10.4 1.4 19.5 4.1 27.3 2.6 5.1 4.9 7.7 6.9 7.7h0.3c3.7 0 6.1-2.6 7.2-7.7 2-4.8 3-15 3-30.6v-5.5c0-10.8-1.9-23.2-5.8-37.2 -1.4-3.1-2.8-5.1-4.1-6.1 -2.2 0.8-3.4 1.8-3.9 3C312.9 32.8 310.4 49.2 310.4 71z"/><path class="st11" d="M352.4 12h0.3c7.3 2.4 12.9 7.1 16.8 14.1 5.9 12 8.8 24.3 8.8 37v1.4c0 18-6.5 32.7-19.6 44.1 -1.7 0.6-2.8 0.8-3.3 0.8 -0.5 0-0.9-1.5-1.1-4.4l0.3-0.6c-0.6-4.2-0.9-10.2-1.1-17.9h0.3l-0.3-0.6v-0.3c0-7.3 0.1-13.9 0.3-19.9L352.4 12zM355.4 16.1v0.3c0.2 20.8 0.6 37.1 1.1 49.1 -0.2 4.9-0.3 10-0.3 15.2V84c0 7 0.4 14.3 1.1 22.1 4.3-3.7 8.2-8.5 11.9-14.3 4.2-9.4 6.3-18.2 6.3-26.5v-2.8c0-11.5-2.9-23.3-8.6-35.3C362.9 21 359 17.3 355.4 16.1z"/><path class="st2" d="M401.2 9.2c3.2 0.8 2.1 7 1.2 13 -0.4 3.1-1 7.5-4.7 10.8 -0.9 0.8-4.2 3.8-9.3 3.7 -4.8-0.1-7.8-2.7-8.5-3.5 -0.8-0.6-4.1-3.3-4.9-8.1 -0.9-5 1.7-8.8 2.3-9.7 2.8-4.1 7-5.3 10.1-6.2C393.2 7.6 398.2 8.4 401.2 9.2z"/><line class="st12" x1="402.3" y1="9.7" x2="379" y2="32"/><line class="st13" x1="389.7" y1="11.6" x2="391.7" y2="19.8"/><line class="st13" x1="399.9" y1="21.9" x2="391.7" y2="19.8"/><line class="st13" x1="401.8" y1="16.8" x2="396.5" y2="15.3"/><line class="st13" x1="399" y1="27.4" x2="387" y2="24.4"/><line class="st13" x1="393.5" y1="31.8" x2="382.2" y2="29"/><line class="st13" x1="395" y1="10" x2="396.4" y2="15.3"/><line class="st13" x1="384" y1="12.4" x2="387" y2="24.4"/><line class="st13" x1="379.3" y1="17.6" x2="382.2" y2="29"/></svg>
 